<svg width="71" height="77" viewBox="0 0 71 77" fill="none" xmlns="http://www.w3.org/2000/svg">
<g clip-path="url(#clip0_7_43)" filter="url(#filter0_f_7_43)">
<path d="M66.9797 52.9463C66.7822 51.1347 66.5151 49.3923 66.1895 47.7303C65.3648 43.4333 64.1341 39.6456 62.8675 36.475C60.1376 29.6913 57.1757 25.7187 57.1757 25.7187C57.1757 25.7187 58.5466 23.7438 58.9069 16.3556C58.9413 15.845 58.9528 15.3221 58.9647 14.764C59.1156 8.75849 56.8275 4.78595 55.0267 3.4848C54.2139 2.8813 53.505 2.8347 53.1679 3.38038C52.7386 4.04295 51.1935 6.31953 49.4047 8.89799C49.2419 9.11931 49.0791 9.35186 48.9168 9.59565C46.0008 13.8121 42.6669 18.5744 42.6669 18.5744H35.4999H28.3328C28.3328 18.5744 24.9988 13.8122 22.083 9.59565C21.9207 9.35186 21.7579 9.11931 21.5953 8.89799C19.8063 6.3198 18.2612 4.04309 17.8318 3.38051C17.495 2.83484 16.786 2.88143 15.9731 3.48493C14.1723 4.78609 11.8842 8.75863 12.0351 14.7641C12.047 15.3222 12.0584 15.8452 12.0929 16.3558C12.453 23.7439 13.8239 25.7189 13.8239 25.7189C13.8239 25.7189 10.8621 29.6916 8.13216 36.4751C6.86567 39.6457 5.63482 43.4334 4.81014 47.7304C4.48467 49.3923 4.21745 51.1348 4.02012 52.9464C4.0082 53.0281 4.0082 53.1211 3.99683 53.2028L4.15963 53.1903L4.25212 53.1791H4.39163L10.92 52.7731L10.0489 59.8118L16.9255 58.7432L18.0871 63.7731L23.1222 61.1186C24.7317 65.4373 26.848 70.9197 27.734 72.3614C29.2508 74.8367 32.5903 74.1301 35.019 72.7166C35.1988 72.6111 35.3485 72.5158 35.483 72.425C35.6173 72.5157 35.766 72.6111 35.9481 72.7166C38.3762 74.1301 41.7147 74.8367 43.232 72.3614C44.1179 70.9184 46.2471 65.4315 47.8669 61.1129L52.9126 63.7732L54.0743 58.7433L60.9509 59.8119L60.0796 52.7732L66.608 53.1792H66.7477L66.84 53.1905L67.0028 53.203C66.9914 53.121 66.9914 53.028 66.9797 52.9463ZM17.8671 23.2539C16.0889 21.1996 15.3418 16.1913 15.9442 13.8465C16.322 12.3683 17.7722 11.757 18.6798 12.8006C19.5895 13.8454 22.7801 19.684 22.7801 19.684C22.7801 19.684 18.3146 23.0305 17.8671 23.2539ZM23.303 48.6766C23.303 48.6766 21.3671 44.611 20.9798 43.0626C25.8196 43.0626 27.756 45.7726 28.5302 46.5474L29.6918 49.0646L23.303 48.6766ZM39.3325 66.2435C37.8527 68.1289 36.471 68.188 35.4993 68.188C34.5278 68.188 33.1472 68.1289 31.6656 66.2435C30.4784 64.7337 31.4494 62.896 32.9622 62.896C33.5016 62.896 35.4992 62.896 35.4992 62.896C35.4992 62.896 37.498 62.896 38.0373 62.896C39.5508 62.896 40.5223 64.7337 39.3325 66.2435ZM47.6968 48.6766L41.3079 49.0646L42.4695 46.5474C43.2437 45.7726 45.1802 43.0626 50.0199 43.0626C49.6326 44.6109 47.6968 48.6766 47.6968 48.6766ZM53.131 23.2539C52.6841 23.0305 48.2193 19.684 48.2193 19.684C48.2193 19.684 51.4092 13.8454 52.3177 12.8006C53.2258 11.757 54.6756 12.3684 55.055 13.8465C55.6579 16.1913 54.9091 21.1994 53.131 23.2539Z" fill="#14FFEC"/>
</g>
<g clip-path="url(#clip1_7_43)" filter="url(#filter1_f_7_43)">
<path d="M66.9797 52.9463C66.7822 51.1347 66.5151 49.3923 66.1895 47.7303C65.3648 43.4333 64.1341 39.6456 62.8675 36.475C60.1376 29.6913 57.1757 25.7187 57.1757 25.7187C57.1757 25.7187 58.5466 23.7438 58.9069 16.3556C58.9413 15.845 58.9528 15.3221 58.9647 14.764C59.1156 8.75849 56.8275 4.78595 55.0267 3.4848C54.2139 2.8813 53.505 2.8347 53.1679 3.38038C52.7386 4.04295 51.1935 6.31953 49.4047 8.89799C49.2419 9.11931 49.0791 9.35186 48.9168 9.59565C46.0008 13.8121 42.6669 18.5744 42.6669 18.5744H35.4999H28.3328C28.3328 18.5744 24.9988 13.8122 22.083 9.59565C21.9207 9.35186 21.7579 9.11931 21.5953 8.89799C19.8063 6.3198 18.2612 4.04309 17.8318 3.38051C17.495 2.83484 16.786 2.88143 15.9731 3.48493C14.1723 4.78609 11.8842 8.75863 12.0351 14.7641C12.047 15.3222 12.0584 15.8452 12.0929 16.3558C12.453 23.7439 13.8239 25.7189 13.8239 25.7189C13.8239 25.7189 10.8621 29.6916 8.13216 36.4751C6.86567 39.6457 5.63482 43.4334 4.81014 47.7304C4.48467 49.3923 4.21745 51.1348 4.02012 52.9464C4.0082 53.0281 4.0082 53.1211 3.99683 53.2028L4.15963 53.1903L4.25212 53.1791H4.39163L10.92 52.7731L10.0489 59.8118L16.9255 58.7432L18.0871 63.7731L23.1222 61.1186C24.7317 65.4373 26.848 70.9197 27.734 72.3614C29.2508 74.8367 32.5903 74.1301 35.019 72.7166C35.1988 72.6111 35.3485 72.5158 35.483 72.425C35.6173 72.5157 35.766 72.6111 35.9481 72.7166C38.3762 74.1301 41.7147 74.8367 43.232 72.3614C44.1179 70.9184 46.2471 65.4315 47.8669 61.1129L52.9126 63.7732L54.0743 58.7433L60.9509 59.8119L60.0796 52.7732L66.608 53.1792H66.7477L66.84 53.1905L67.0028 53.203C66.9914 53.121 66.9914 53.028 66.9797 52.9463ZM17.8671 23.2539C16.0889 21.1996 15.3418 16.1913 15.9442 13.8465C16.322 12.3683 17.7722 11.757 18.6798 12.8006C19.5895 13.8454 22.7801 19.684 22.7801 19.684C22.7801 19.684 18.3146 23.0305 17.8671 23.2539ZM23.303 48.6766C23.303 48.6766 21.3671 44.611 20.9798 43.0626C25.8196 43.0626 27.756 45.7726 28.5302 46.5474L29.6918 49.0646L23.303 48.6766ZM39.3325 66.2435C37.8527 68.1289 36.471 68.188 35.4993 68.188C34.5278 68.188 33.1472 68.1289 31.6656 66.2435C30.4784 64.7337 31.4494 62.896 32.9622 62.896C33.5016 62.896 35.4992 62.896 35.4992 62.896C35.4992 62.896 37.498 62.896 38.0373 62.896C39.5508 62.896 40.5223 64.7337 39.3325 66.2435ZM47.6968 48.6766L41.3079 49.0646L42.4695 46.5474C43.2437 45.7726 45.1802 43.0626 50.0199 43.0626C49.6326 44.6109 47.6968 48.6766 47.6968 48.6766ZM53.131 23.2539C52.6841 23.0305 48.2193 19.684 48.2193 19.684C48.2193 19.684 51.4092 13.8454 52.3177 12.8006C53.2258 11.757 54.6756 12.3684 55.055 13.8465C55.6579 16.1913 54.9091 21.1994 53.131 23.2539Z" fill="#14FFEC"/>
</g>
<g clip-path="url(#clip2_7_43)">
<path d="M66.9797 52.9463C66.7822 51.1347 66.5151 49.3923 66.1895 47.7303C65.3648 43.4333 64.1341 39.6456 62.8675 36.475C60.1376 29.6913 57.1757 25.7187 57.1757 25.7187C57.1757 25.7187 58.5466 23.7438 58.9069 16.3556C58.9413 15.845 58.9528 15.3221 58.9647 14.764C59.1156 8.75849 56.8275 4.78595 55.0267 3.4848C54.2139 2.8813 53.505 2.8347 53.1679 3.38038C52.7386 4.04295 51.1935 6.31953 49.4047 8.89799C49.2419 9.11931 49.0791 9.35186 48.9168 9.59565C46.0008 13.8121 42.6669 18.5744 42.6669 18.5744H35.4999H28.3328C28.3328 18.5744 24.9988 13.8122 22.083 9.59565C21.9207 9.35186 21.7579 9.11931 21.5953 8.89799C19.8063 6.3198 18.2612 4.04309 17.8318 3.38051C17.495 2.83484 16.786 2.88143 15.9731 3.48493C14.1723 4.78609 11.8842 8.75863 12.0351 14.7641C12.047 15.3222 12.0584 15.8452 12.0929 16.3558C12.453 23.7439 13.8239 25.7189 13.8239 25.7189C13.8239 25.7189 10.8621 29.6916 8.13216 36.4751C6.86567 39.6457 5.63482 43.4334 4.81014 47.7304C4.48467 49.3923 4.21745 51.1348 4.02012 52.9464C4.0082 53.0281 4.0082 53.1211 3.99683 53.2028L4.15963 53.1903L4.25212 53.1791H4.39163L10.92 52.7731L10.0489 59.8118L16.9255 58.7432L18.0871 63.7731L23.1222 61.1186C24.7317 65.4373 26.848 70.9197 27.734 72.3614C29.2508 74.8367 32.5903 74.1301 35.019 72.7166C35.1988 72.6111 35.3485 72.5158 35.483 72.425C35.6173 72.5157 35.766 72.6111 35.9481 72.7166C38.3762 74.1301 41.7147 74.8367 43.232 72.3614C44.1179 70.9184 46.2471 65.4315 47.8669 61.1129L52.9126 63.7732L54.0743 58.7433L60.9509 59.8119L60.0796 52.7732L66.608 53.1792H66.7477L66.84 53.1905L67.0028 53.203C66.9914 53.121 66.9914 53.028 66.9797 52.9463ZM17.8671 23.2539C16.0889 21.1996 15.3418 16.1913 15.9442 13.8465C16.322 12.3683 17.7722 11.757 18.6798 12.8006C19.5895 13.8454 22.7801 19.684 22.7801 19.684C22.7801 19.684 18.3146 23.0305 17.8671 23.2539ZM23.303 48.6766C23.303 48.6766 21.3671 44.611 20.9798 43.0626C25.8196 43.0626 27.756 45.7726 28.5302 46.5474L29.6918 49.0646L23.303 48.6766ZM39.3325 66.2435C37.8527 68.1289 36.471 68.188 35.4993 68.188C34.5278 68.188 33.1472 68.1289 31.6656 66.2435C30.4784 64.7337 31.4494 62.896 32.9622 62.896C33.5016 62.896 35.4992 62.896 35.4992 62.896C35.4992 62.896 37.498 62.896 38.0373 62.896C39.5508 62.896 40.5223 64.7337 39.3325 66.2435ZM47.6968 48.6766L41.3079 49.0646L42.4695 46.5474C43.2437 45.7726 45.1802 43.0626 50.0199 43.0626C49.6326 44.6109 47.6968 48.6766 47.6968 48.6766ZM53.131 23.2539C52.6841 23.0305 48.2193 19.684 48.2193 19.684C48.2193 19.684 51.4092 13.8454 52.3177 12.8006C53.2258 11.757 54.6756 12.3684 55.055 13.8465C55.6579 16.1913 54.9091 21.1994 53.131 23.2539Z" fill="#14FFEC"/>
</g>
<defs>
<filter id="filter0_f_7_43" x="-2" y="1" width="75" height="75" filterUnits="userSpaceOnUse" color-interpolation-filters="sRGB">
<feFlood flood-opacity="0" result="BackgroundImageFix"/>
<feBlend mode="normal" in="SourceGraphic" in2="BackgroundImageFix" result="shape"/>
<feGaussianBlur stdDeviation="1" result="effect1_foregroundBlur_7_43"/>
</filter>
<filter id="filter1_f_7_43" x="-3" y="0" width="77" height="77" filterUnits="userSpaceOnUse" color-interpolation-filters="sRGB">
<feFlood flood-opacity="0" result="BackgroundImageFix"/>
<feBlend mode="normal" in="SourceGraphic" in2="BackgroundImageFix" result="shape"/>
<feGaussianBlur stdDeviation="1.5" result="effect1_foregroundBlur_7_43"/>
</filter>
<clipPath id="clip0_7_43">
<rect width="71" height="71" fill="white" transform="translate(0 3)"/>
</clipPath>
<clipPath id="clip1_7_43">
<rect width="71" height="71" fill="white" transform="translate(0 3)"/>
</clipPath>
<clipPath id="clip2_7_43">
<rect width="71" height="71" fill="white" transform="translate(0 3)"/>
</clipPath>
</defs>
</svg>
