<svg width="48" height="48" viewBox="0 0 48 48" fill="none" xmlns="http://www.w3.org/2000/svg">
<g clip-path="url(#clip0_7_10)">
<path fill-rule="evenodd" clip-rule="evenodd" d="M39.7501 43.2H8.25162C6.55628 43.2 5.30437 41.5271 5.94379 39.9887C8.91063 32.8751 15.8806 28.8 23.9996 28.8C32.1211 28.8 39.0911 32.8751 42.0579 39.9887C42.6974 41.5271 41.4454 43.2 39.7501 43.2ZM14.2 14.4C14.2 9.10556 18.5976 4.79996 23.9996 4.79996C29.4041 4.79996 33.7993 9.10556 33.7993 14.4C33.7993 19.6944 29.4041 24 23.9996 24C18.5976 24 14.2 19.6944 14.2 14.4ZM47.8936 42.3263C46.1125 34.2647 40.5414 28.3151 33.2089 25.6151C37.0944 22.5503 39.3606 17.5942 38.5276 12.1678C37.5623 5.87263 32.2167 0.835144 25.7636 0.100744C16.8557 -0.914456 9.30017 5.87756 9.30017 14.4C9.30017 18.936 11.4463 22.9775 14.7929 25.6151C7.45784 28.3151 1.88919 34.2647 0.105658 42.3263C-0.541119 45.2567 1.8696 48 4.92953 48H43.0697C46.1321 48 48.5428 45.2567 47.8936 42.3263Z" fill="#14FFEC"/>
</g>
<defs>
<clipPath id="clip0_7_10">
<rect width="48" height="48" fill="white"/>
</clipPath>
</defs>
</svg>
