<svg width="71" height="71" viewBox="0 0 71 71" fill="none" xmlns="http://www.w3.org/2000/svg">
<g clip-path="url(#clip0_7_43)">
<path d="M66.9797 49.9463C66.7822 48.1347 66.5151 46.3923 66.1895 44.7303C65.3648 40.4333 64.1341 36.6456 62.8675 33.475C60.1376 26.6913 57.1757 22.7188 57.1757 22.7188C57.1757 22.7188 58.5466 20.7438 58.9069 13.3556C58.9413 12.845 58.9528 12.3221 58.9647 11.764C59.1156 5.75849 56.8275 1.78595 55.0267 0.484796C54.2139 -0.118704 53.505 -0.165298 53.1679 0.380376C52.7386 1.04295 51.1935 3.31953 49.4047 5.89799C49.2419 6.11931 49.0791 6.35186 48.9168 6.59565C46.0008 10.8121 42.6669 15.5744 42.6669 15.5744H35.4999H28.3328C28.3328 15.5744 24.9988 10.8122 22.083 6.59565C21.9207 6.35186 21.7579 6.11931 21.5953 5.89799C19.8063 3.3198 18.2612 1.04309 17.8318 0.380514C17.495 -0.165159 16.786 -0.118566 15.9731 0.484934C14.1723 1.78609 11.8842 5.75863 12.0351 11.7641C12.047 12.3222 12.0584 12.8452 12.0929 13.3558C12.453 20.7439 13.8239 22.7189 13.8239 22.7189C13.8239 22.7189 10.8621 26.6916 8.13216 33.4751C6.86567 36.6457 5.63482 40.4334 4.81014 44.7304C4.48467 46.3923 4.21745 48.1348 4.02012 49.9464C4.0082 50.0281 4.0082 50.1211 3.99683 50.2028L4.15963 50.1903L4.25212 50.1791H4.39163L10.92 49.7731L10.0489 56.8118L16.9255 55.7432L18.0871 60.7731L23.1222 58.1186C24.7317 62.4373 26.848 67.9197 27.734 69.3615C29.2508 71.8367 32.5903 71.1301 35.019 69.7166C35.1988 69.6111 35.3485 69.5158 35.483 69.425C35.6173 69.5157 35.766 69.6111 35.9481 69.7166C38.3762 71.1301 41.7147 71.8367 43.232 69.3615C44.1179 67.9184 46.2471 62.4315 47.8669 58.1129L52.9126 60.7732L54.0743 55.7433L60.9509 56.8119L60.0796 49.7732L66.608 50.1792H66.7477L66.84 50.1905L67.0028 50.203C66.9914 50.121 66.9914 50.028 66.9797 49.9463ZM17.8671 20.2539C16.0889 18.1996 15.3418 13.1913 15.9442 10.8465C16.322 9.36826 17.7722 8.75699 18.6798 9.80063C19.5895 10.8454 22.7801 16.684 22.7801 16.684C22.7801 16.684 18.3146 20.0305 17.8671 20.2539ZM23.303 45.6766C23.303 45.6766 21.3671 41.611 20.9798 40.0626C25.8196 40.0626 27.756 42.7726 28.5302 43.5474L29.6918 46.0646L23.303 45.6766ZM39.3325 63.2435C37.8527 65.1289 36.471 65.188 35.4993 65.188C34.5278 65.188 33.1472 65.1289 31.6656 63.2435C30.4784 61.7337 31.4494 59.896 32.9622 59.896C33.5016 59.896 35.4992 59.896 35.4992 59.896C35.4992 59.896 37.498 59.896 38.0373 59.896C39.5508 59.896 40.5223 61.7337 39.3325 63.2435ZM47.6968 45.6766L41.3079 46.0646L42.4695 43.5474C43.2437 42.7726 45.1802 40.0626 50.0199 40.0626C49.6326 41.6109 47.6968 45.6766 47.6968 45.6766ZM53.131 20.2539C52.6841 20.0305 48.2193 16.684 48.2193 16.684C48.2193 16.684 51.4092 10.8454 52.3177 9.80063C53.2258 8.75699 54.6756 9.36839 55.055 10.8465C55.6579 13.1913 54.9091 18.1994 53.131 20.2539Z" fill="#14FFEC"/>
</g>
<defs>
<clipPath id="clip0_7_43">
<rect width="71" height="71" fill="white"/>
</clipPath>
</defs>
</svg>
